<?xml version="1.0" encoding="utf-8"?>
<!-- Generator: Adobe Illustrator 18.0.0, SVG Export Plug-In . SVG Version: 6.00 Build 0)  -->
<!DOCTYPE svg PUBLIC "-//W3C//DTD SVG 1.1//EN" "http://www.w3.org/Graphics/SVG/1.1/DTD/svg11.dtd">
<svg version="1.1" id="Calque_3" xmlns="http://www.w3.org/2000/svg" xmlns:xlink="http://www.w3.org/1999/xlink" x="0px" y="0px"
	 viewBox="0 0 456.2 184.5" enable-background="new 0 0 456.2 184.5" xml:space="preserve">
<g>
	<text transform="matrix(1 0 0 1 104.8928 98.7166)"><tspan x="0" y="0" fill="#FFFFFF" font-family="'Lato-Light'" font-size="62.9625">MY </tspan><tspan x="107.1" y="0" fill="#FFFFFF" font-family="'Lato-Regular'" font-size="62.9625">TRAVEL</tspan></text>
	<rect x="108.3" y="112.4" fill="none" width="347.9" height="72.2"/>
	<text transform="matrix(1 0 0 1 108.323 131.6174)" fill="#FFFFFF" font-family="'Lato-Regular'" font-size="26.1294">un voyage qui vous ressemble</text>
	<g>
		<g>
			<g>
				<path fill="#FFFFFF" d="M80.7,35.2c-0.4,0-0.7-0.3-0.8-0.7c-0.1-0.5,0.2-0.9,0.6-1c1.1-0.3,1.7-0.4,1.7-0.4
					c0.5-0.1,0.9,0.2,1,0.7c0.1,0.5-0.2,0.9-0.7,1c0,0-0.6,0.1-1.6,0.4C80.9,35.2,80.8,35.2,80.7,35.2z"/>
				<path fill="#FFFFFF" d="M1.7,106.8c-0.1,0-0.1,0-0.2,0c-0.5-0.1-0.7-0.6-0.6-1c0.3-1.1,0.6-2.2,0.9-3.4c0.1-0.4,0.6-0.7,1.1-0.6
					c0.4,0.1,0.7,0.6,0.6,1.1c-0.3,1.1-0.6,2.2-0.9,3.3C2.4,106.5,2.1,106.8,1.7,106.8z M3.7,100.2c-0.1,0-0.2,0-0.3-0.1
					c-0.4-0.2-0.7-0.6-0.5-1.1c0.4-1.1,0.8-2.2,1.3-3.2c0.2-0.4,0.7-0.6,1.1-0.5c0.4,0.2,0.6,0.7,0.5,1.1c-0.4,1-0.9,2.1-1.2,3.2
					C4.3,100,4,100.2,3.7,100.2z M63.2,97c-0.5,0-0.8-0.4-0.8-0.8c0-0.5,0.4-0.9,0.8-0.9c1.1,0,2.2-0.1,3.3-0.2
					c0.5-0.1,0.9,0.3,0.9,0.7c0.1,0.5-0.3,0.9-0.7,0.9C65.5,96.9,64.3,97,63.2,97C63.2,97,63.2,97,63.2,97z M59.7,96.9
					C59.7,96.9,59.7,96.9,59.7,96.9c-1.2-0.1-2.4-0.3-3.5-0.5c-0.5-0.1-0.8-0.5-0.7-1c0.1-0.5,0.5-0.8,1-0.7
					c1.1,0.2,2.2,0.3,3.3,0.4c0.5,0,0.8,0.4,0.8,0.9C60.5,96.6,60.2,96.9,59.7,96.9z M69.9,96.2c-0.4,0-0.7-0.3-0.8-0.7
					c-0.1-0.5,0.2-0.9,0.6-1c1.1-0.3,2.2-0.6,3.2-1c0.4-0.2,0.9,0.1,1.1,0.5c0.2,0.4-0.1,0.9-0.5,1.1c-1.1,0.4-2.2,0.7-3.4,1
					C70.1,96.2,70,96.2,69.9,96.2z M53,95.7c-0.1,0-0.2,0-0.2,0c-1.1-0.3-2.3-0.7-3.3-1.1c-0.4-0.2-0.7-0.7-0.5-1.1
					c0.2-0.4,0.7-0.7,1.1-0.5c1,0.4,2.1,0.7,3.2,1c0.5,0.1,0.7,0.6,0.6,1C53.7,95.4,53.4,95.7,53,95.7z M6.3,93.9
					c-0.1,0-0.2,0-0.4-0.1c-0.4-0.2-0.6-0.7-0.4-1.1c0.5-1,1-2.1,1.5-3.1c0.2-0.4,0.7-0.6,1.1-0.4c0.4,0.2,0.6,0.7,0.4,1.1
					c-0.5,1-1,2-1.5,3C6.9,93.7,6.6,93.9,6.3,93.9z M76.3,93.8c-0.3,0-0.6-0.2-0.7-0.4c-0.2-0.4-0.1-0.9,0.3-1.2
					c0.3-0.2,0.6-0.4,0.9-0.6c0.6-0.4,1.2-0.9,1.8-1.3c0.4-0.3,0.9-0.2,1.2,0.1s0.2,0.9-0.1,1.2c-0.6,0.5-1.2,0.9-1.9,1.4
					c-0.3,0.2-0.7,0.4-1,0.6C76.6,93.8,76.5,93.8,76.3,93.8z M46.6,93.2c-0.1,0-0.3,0-0.4-0.1c-1.1-0.5-2.1-1.2-3-1.8
					c-0.4-0.3-0.5-0.8-0.2-1.2s0.8-0.5,1.2-0.2c0.9,0.6,1.9,1.2,2.9,1.7c0.4,0.2,0.6,0.7,0.4,1.1C47.2,93,46.9,93.2,46.6,93.2z
					 M81.6,89.4c-0.2,0-0.4-0.1-0.5-0.2c-0.4-0.3-0.4-0.8-0.1-1.2c0.7-0.9,1.3-1.8,1.8-2.7c0.2-0.4,0.7-0.6,1.1-0.4
					c0.4,0.2,0.6,0.7,0.4,1.1c-0.5,1-1.2,2.1-2,3C82,89.3,81.8,89.4,81.6,89.4z M41,89.4c-0.2,0-0.4-0.1-0.6-0.2
					c-0.9-0.8-1.7-1.7-2.5-2.6c-0.3-0.4-0.2-0.9,0.1-1.2c0.4-0.3,0.9-0.2,1.2,0.1c0.7,0.8,1.4,1.6,2.3,2.4c0.3,0.3,0.4,0.9,0.1,1.2
					C41.4,89.3,41.2,89.4,41,89.4z M9.5,87.8c-0.1,0-0.3,0-0.4-0.1c-0.4-0.2-0.5-0.8-0.3-1.2c0.5-0.9,1-1.7,1.6-2.6l0.2-0.4
					c0.3-0.4,0.8-0.5,1.2-0.2c0.4,0.3,0.5,0.8,0.2,1.2l-0.2,0.3c-0.5,0.9-1.1,1.7-1.5,2.6C10.1,87.7,9.8,87.8,9.5,87.8z M36.7,84.1
					c-0.3,0-0.6-0.2-0.7-0.4c-0.6-1-1.1-2.1-1.5-3.3c-0.2-0.4,0.1-0.9,0.5-1.1c0.4-0.2,0.9,0.1,1.1,0.5c0.4,1,0.8,2,1.3,3
					c0.2,0.4,0.1,0.9-0.3,1.2C37,84,36.8,84.1,36.7,84.1z M84.4,83.3c0,0-0.1,0-0.1,0c-0.5-0.1-0.8-0.5-0.7-1c0-0.4,0.1-0.8,0.1-1.1
					c0-0.7-0.1-1.3-0.2-2c-0.1-0.5,0.2-0.9,0.7-1c0.5-0.1,0.9,0.2,1,0.7c0.2,0.8,0.2,1.6,0.2,2.3c0,0.5,0,0.9-0.1,1.4
					C85.2,83,84.9,83.3,84.4,83.3z M13.3,82.2c-0.2,0-0.4-0.1-0.6-0.2c-0.4-0.3-0.4-0.8-0.1-1.2c0.7-0.9,1.6-1.7,2.4-2.5
					c0.3-0.3,0.9-0.3,1.2,0c0.3,0.3,0.3,0.9,0,1.2c-0.8,0.8-1.6,1.6-2.3,2.4C13.8,82.1,13.6,82.2,13.3,82.2z M34.5,77.6
					c-0.4,0-0.8-0.3-0.8-0.7c-0.2-1.1-0.3-2.3-0.3-3.5c0-0.5,0.4-0.9,0.8-0.9c0.5,0,0.8,0.3,0.8,0.8l0,0.1c0,1.1,0.1,2.1,0.2,3.2
					c0.1,0.5-0.2,0.9-0.7,1C34.5,77.6,34.5,77.6,34.5,77.6z M18.3,77.5c-0.3,0-0.5-0.1-0.7-0.3c-0.3-0.4-0.2-0.9,0.1-1.2
					c0.9-0.7,1.8-1.4,2.8-2.1c0.4-0.3,0.9-0.2,1.2,0.2c0.3,0.4,0.2,0.9-0.2,1.2c-0.9,0.6-1.9,1.3-2.7,2
					C18.7,77.4,18.5,77.5,18.3,77.5z M83.1,76.7c-0.3,0-0.6-0.2-0.8-0.4c-0.5-0.9-1.1-1.8-1.8-2.7c-0.3-0.4-0.3-0.9,0.1-1.2
					c0.4-0.3,0.9-0.3,1.2,0.1c0.8,1,1.5,2,2,3c0.2,0.4,0.1,0.9-0.3,1.1C83.4,76.7,83.2,76.7,83.1,76.7z M24,73.6
					c-0.3,0-0.6-0.1-0.7-0.4c-0.2-0.4-0.1-0.9,0.3-1.2c1-0.6,2-1.1,3-1.7c0.4-0.2,0.9-0.1,1.1,0.4c0.2,0.4,0.1,0.9-0.4,1.1
					c-1,0.5-2,1.1-3,1.6C24.3,73.6,24.1,73.6,24,73.6z M78.8,71.5c-0.2,0-0.4-0.1-0.6-0.2c-0.8-0.7-1.7-1.4-2.6-2
					c-0.4-0.3-0.5-0.8-0.2-1.2c0.3-0.4,0.8-0.5,1.2-0.2c1,0.7,2,1.4,2.8,2.1c0.4,0.3,0.4,0.8,0.1,1.2C79.2,71.4,79,71.5,78.8,71.5z
					 M34.5,70.8c0,0-0.1,0-0.1,0c-0.5-0.1-0.8-0.5-0.7-1c0-0.3,0.1-0.6,0.1-0.9c-0.1,0.1-0.1,0.1-0.2,0.1c-1,0.4-2.1,0.9-3.1,1.3
					c-0.4,0.2-0.9,0-1.1-0.4c-0.2-0.4,0-0.9,0.4-1.1c1-0.5,2.1-0.9,3.2-1.4c0.4-0.2,0.9,0,1.1,0.4c0,0,0-0.1,0-0.1
					c0.1-0.5,0.2-0.9,0.3-1.4c0.1-0.5,0.6-0.7,1-0.6c0.3,0.1,0.5,0.3,0.6,0.6c0.1,0,0.1-0.1,0.2-0.1c1.1-0.4,2.2-0.7,3.3-1.1
					c0.5-0.1,0.9,0.1,1.1,0.6c0.1,0.4-0.1,0.9-0.6,1.1c-1.1,0.3-2.2,0.7-3.2,1c-0.3,0.1-0.7,0-0.9-0.3c0,0.2-0.1,0.3-0.1,0.5
					c-0.1,0.7-0.3,1.3-0.4,1.9C35.2,70.5,34.9,70.8,34.5,70.8z M73.1,67.7c-0.1,0-0.3,0-0.4-0.1c-1-0.5-2-1-3-1.4
					c-0.4-0.2-0.6-0.7-0.5-1.1c0.2-0.4,0.7-0.6,1.1-0.5c1.1,0.4,2.2,0.9,3.2,1.5c0.4,0.2,0.6,0.7,0.4,1.1
					C73.7,67.5,73.4,67.7,73.1,67.7z M43,66c-0.4,0-0.7-0.3-0.8-0.6c-0.1-0.5,0.2-0.9,0.6-1c1.1-0.3,2.3-0.5,3.4-0.8
					c0.5-0.1,0.9,0.2,1,0.7c0.1,0.5-0.2,0.9-0.7,1c-1.1,0.2-2.2,0.5-3.3,0.7C43.1,66,43.1,66,43,66z M66.7,65.1c-0.1,0-0.2,0-0.2,0
					c-1-0.3-2.1-0.5-3.2-0.7c-0.5-0.1-0.8-0.5-0.7-1c0.1-0.5,0.5-0.8,1-0.7c1.2,0.2,2.4,0.4,3.5,0.7c0.5,0.1,0.7,0.6,0.6,1
					C67.4,64.9,67.1,65.1,66.7,65.1z M49.7,64.7c-0.4,0-0.8-0.3-0.8-0.7c-0.1-0.5,0.3-0.9,0.7-1c1.2-0.2,2.3-0.3,3.4-0.4
					c0.5,0,0.9,0.3,0.9,0.8c0,0.5-0.3,0.9-0.8,0.9c-1.1,0.1-2.2,0.2-3.4,0.4C49.8,64.7,49.8,64.7,49.7,64.7z M36.3,64.2
					c-0.1,0-0.2,0-0.3-0.1c-0.4-0.2-0.6-0.7-0.5-1.1c0.4-1.1,1-2.1,1.6-3.2c0.2-0.4,0.8-0.5,1.2-0.3c0.4,0.2,0.5,0.8,0.3,1.2
					c-0.6,1-1.1,2-1.5,3C36.9,64.1,36.6,64.2,36.3,64.2z M60,64.1C59.9,64.1,59.9,64.1,60,64.1c-1.1-0.1-2.2-0.1-3.4,0
					c-0.5,0-0.9-0.4-0.9-0.8c0-0.5,0.4-0.9,0.8-0.9c1.2,0,2.4,0,3.5,0c0.5,0,0.8,0.4,0.8,0.9C60.8,63.8,60.4,64.1,60,64.1z
					 M39.7,58.3c-0.2,0-0.3-0.1-0.5-0.2c-0.4-0.3-0.5-0.8-0.2-1.2c0.7-0.9,1.4-1.8,2.2-2.7c0.3-0.4,0.8-0.4,1.2-0.1
					c0.4,0.3,0.4,0.8,0.1,1.2c-0.8,0.9-1.5,1.7-2.1,2.6C40.2,58.2,39.9,58.3,39.7,58.3z M44.2,53.2c-0.2,0-0.4-0.1-0.6-0.3
					c-0.3-0.3-0.3-0.9,0-1.2c0.8-0.8,1.7-1.6,2.6-2.3c0.4-0.3,0.9-0.2,1.2,0.1c0.3,0.4,0.2,0.9-0.1,1.2c-0.9,0.7-1.7,1.5-2.5,2.2
					C44.6,53.1,44.4,53.2,44.2,53.2z M49.5,48.8c-0.3,0-0.5-0.1-0.7-0.4c-0.3-0.4-0.2-0.9,0.2-1.2c0.9-0.7,1.9-1.3,2.9-1.9
					c0.4-0.3,0.9-0.1,1.2,0.3c0.3,0.4,0.1,0.9-0.3,1.2c-1,0.6-1.9,1.3-2.8,1.9C49.8,48.8,49.7,48.8,49.5,48.8z M55.3,45.1
					c-0.3,0-0.6-0.2-0.7-0.4c-0.2-0.4-0.1-0.9,0.3-1.2c1-0.6,2-1.1,3-1.7c0.4-0.2,0.9-0.1,1.1,0.4c0.2,0.4,0.1,0.9-0.4,1.1
					c-1,0.5-2,1.1-3,1.6C55.5,45.1,55.4,45.1,55.3,45.1z M61.3,42c-0.3,0-0.6-0.2-0.8-0.5c-0.2-0.4,0-0.9,0.4-1.1
					c1-0.5,2.1-0.9,3.2-1.4c0.4-0.2,0.9,0,1.1,0.5c0.2,0.4,0,0.9-0.5,1.1c-1.1,0.4-2.1,0.9-3.1,1.4C61.6,42,61.5,42,61.3,42z
					 M67.7,39.3c-0.3,0-0.7-0.2-0.8-0.5c-0.2-0.4,0.1-0.9,0.5-1.1c1.1-0.4,2.2-0.8,3.2-1.2c0.4-0.2,0.9,0.1,1.1,0.5
					c0.2,0.4-0.1,0.9-0.5,1.1c-1,0.4-2.1,0.7-3.2,1.2C67.9,39.3,67.8,39.3,67.7,39.3z M74.1,37.1c-0.4,0-0.7-0.2-0.8-0.6
					c-0.1-0.4,0.1-0.9,0.6-1.1c1.2-0.4,2.3-0.7,3.3-1c0.5-0.1,0.9,0.1,1,0.6c0.1,0.5-0.1,0.9-0.6,1c-1,0.3-2.1,0.6-3.3,1
					C74.3,37.1,74.2,37.1,74.1,37.1z"/>
				<path fill="#FFFFFF" d="M0.9,111.9C0.8,111.9,0.8,111.9,0.9,111.9c-0.5,0-0.9-0.4-0.8-0.9c0,0,0-0.6,0.2-1.8
					c0.1-0.5,0.5-0.8,1-0.7c0.5,0.1,0.8,0.5,0.7,1c-0.2,1-0.2,1.6-0.2,1.6C1.7,111.5,1.3,111.9,0.9,111.9z"/>
			</g>
		</g>
		<polygon fill="#FFFFFF" points="83.9,0 101.4,16.8 96.1,38.1 113.6,21.2 135.1,38.4 187.2,15.3 		"/>
		<polygon fill="#E2E2E1" points="101.4,16.8 187.2,15.3 113.6,21.2 96.1,38.1 		"/>
		<polygon fill="#B5B5B5" points="96.1,38.1 124.6,30 113.6,21.2 		"/>
	</g>
</g>
</svg>
